<?xml version="1.0" encoding="UTF-8" standalone="no"?>
<!-- Created with Inkscape (http://www.inkscape.org/) -->
<svg
   xmlns:dc="http://purl.org/dc/elements/1.1/"
   xmlns:cc="http://creativecommons.org/ns#"
   xmlns:rdf="http://www.w3.org/1999/02/22-rdf-syntax-ns#"
   xmlns:svg="http://www.w3.org/2000/svg"
   xmlns="http://www.w3.org/2000/svg"
   xmlns:sodipodi="http://sodipodi.sourceforge.net/DTD/sodipodi-0.dtd"
   xmlns:inkscape="http://www.inkscape.org/namespaces/inkscape"
   width="744.09448819"
   height="1052.3622047"
   id="svg2"
   sodipodi:version="0.32"
   inkscape:version="0.46"
   sodipodi:docname="blackflower.svg"
   inkscape:output_extension="org.inkscape.output.svg.inkscape">
  <sodipodi:namedview
     id="base"
     pagecolor="#ffffff"
     bordercolor="#666666"
     borderopacity="1.0"
     gridtolerance="10000"
     guidetolerance="10"
     objecttolerance="10"
     inkscape:pageopacity="0.0"
     inkscape:pageshadow="2"
     inkscape:zoom="0.7"
     inkscape:cx="1342.5574"
     inkscape:cy="-6.4826721"
     inkscape:document-units="px"
     inkscape:current-layer="layer1"
     showgrid="false"
     inkscape:window-width="1280"
     inkscape:window-height="800"
     inkscape:window-x="0"
     inkscape:window-y="0" />
  <defs
     id="defs4">
    <inkscape:perspective
       sodipodi:type="inkscape:persp3d"
       inkscape:vp_x="0 : 526.18109 : 1"
       inkscape:vp_y="0 : 1000 : 0"
       inkscape:vp_z="744.09448 : 526.18109 : 1"
       inkscape:persp3d-origin="372.04724 : 350.78739 : 1"
       id="perspective10" />
    <inkscape:shapeids
       id="shapeids7327453943698250">
      <inkscape:shape
         id="B"
         inkscape:weight="1.0"
         inkscape:shapeid="g7350696292768580" />
      <inkscape:shape
         id="B0"
         inkscape:weight="1.0"
         inkscape:shapeid="g5293987012832727" />
    </inkscape:shapeids>
  </defs>
  <metadata
     id="metadata7">
    <rdf:RDF>
      <cc:Work
         rdf:about="">
        <dc:format>image/svg+xml</dc:format>
        <dc:type
           rdf:resource="http://purl.org/dc/dcmitype/StillImage" />
      </cc:Work>
    </rdf:RDF>
  </metadata>
  <g
     inkscape:label="Layer 1"
     inkscape:groupmode="layer"
     id="layer1">
    <path
       style="opacity:1;fill:none;fill-opacity:0.82300881999999986;fill-rule:evenodd;stroke:#000000;stroke-width:0.83852780000000005;stroke-linecap:butt;stroke-linejoin:miter;stroke-miterlimit:4;stroke-dasharray:none;stroke-opacity:1"
       d="M -58.66958,405.45103 C -24.168766,358.09683 10.332054,310.93653 44.832874,274.65053 C 79.333694,238.36453 113.8345,213.29223 148.33532,205.05303 C 182.83614,196.81373 217.33696,205.56123 251.83778,229.22393 C 286.33859,252.88673 320.83941,291.36083 355.34023,335.85353 C 389.84105,380.34613 424.34186,430.54453 458.84268,475.04843 C 493.3435,519.55243 527.84432,557.98663 562.34514,581.67803 C 596.84595,605.36943 631.34677,614.05563 665.84759,605.84893 C 700.34841,597.64233 734.84923,572.51623 769.35004,536.25143 C 803.85086,499.98673 838.35168,452.80513 872.85245,405.45103"
       title="sin(x)"
       id="path3233" />
    <g
       id="g7350696292768580"
       inkscape:shape="B"
       transform="translate(0,700)">
      <path
         style="opacity:1;fill:none;fill-opacity:0.82300882;fill-rule:evenodd;stroke:#000000;stroke-width:0.8385278;stroke-linecap:butt;stroke-linejoin:miter;stroke-miterlimit:4;stroke-dasharray:none;stroke-opacity:1"
         d="M -58.66958,405.45103 C -24.168766,358.09683 10.332054,310.93653 44.832874,274.65053 C 79.333694,238.36453 113.8345,213.29223 148.33532,205.05303 C 182.83614,196.81373 217.33696,205.56123 251.83778,229.22393 C 286.33859,252.88673 320.83941,291.36083 355.34023,335.85353 C 389.84105,380.34613 424.34186,430.54453 458.84268,475.04843 C 493.3435,519.55243 527.84432,557.98663 562.34514,581.67803 C 596.84595,605.36943 631.34677,614.05563 665.84759,605.84893 C 700.34841,597.64233 734.84923,572.51623 769.35004,536.25143 C 803.85086,499.98673 838.35168,452.80513 872.85245,405.45103"
         title="sin(x)"
         id="path7432207487489812" />
      <path
         style="opacity:1;fill:none;fill-opacity:0.82300882;fill-rule:evenodd;stroke:#000000;stroke-width:0.8385278;stroke-linecap:butt;stroke-linejoin:miter;stroke-miterlimit:4;stroke-dasharray:none;stroke-opacity:1"
         d="M 872.85245,405.45103 C 838.35164,358.09683 803.85082,310.93653 769.35,274.65053 C 734.84918,238.36453 700.34837,213.29223 665.84755,205.05303 C 631.34673,196.81373 596.84591,205.56123 562.34509,229.22393 C 527.84428,252.88673 493.34346,291.36083 458.84264,335.85353 C 424.34182,380.34613 389.84101,430.54453 355.34019,475.04843 C 320.83937,519.55243 286.33855,557.98663 251.83773,581.67803 C 217.33692,605.36943 182.8361,614.05563 148.33528,605.84893 C 113.83446,597.64233 79.33364,572.51623 44.83283,536.25143 C 10.33201,499.98673 -24.16881,452.80513 -58.66958,405.45103"
         title="sin(x)"
         id="path3264" />
      <g
         id="g3272"
         inkscape:shape="B"
         transform="matrix(0.992,0,0,0.992,3.2567315,3.2435689)"
         inkscape:rdepth="0"
         inkscape:hue="0.0"
         inkscape:huefloor="-0.001"
         inkscape:hueceil="-0.001"
         inkscape:sat="0.0"
         inkscape:satfloor="-0.001"
         inkscape:satceil="-0.001"
         inkscape:bri="0.01"
         inkscape:brifloor="-0.001"
         inkscape:briceil="1.0"
         inkscape:opa="0.0"
         inkscape:opafloor="0.0"
         inkscape:opaceil="1.0">
        <path
           style="opacity:1;fill:none;fill-opacity:0.82300882;fill-rule:evenodd;stroke:#000000;stroke-width:0.8385278;stroke-linecap:butt;stroke-linejoin:miter;stroke-miterlimit:4;stroke-dasharray:none;stroke-opacity:1"
           d="M -58.66958,405.45103 C -24.168766,358.09683 10.332054,310.93653 44.832874,274.65053 C 79.333694,238.36453 113.8345,213.29223 148.33532,205.05303 C 182.83614,196.81373 217.33696,205.56123 251.83778,229.22393 C 286.33859,252.88673 320.83941,291.36083 355.34023,335.85353 C 389.84105,380.34613 424.34186,430.54453 458.84268,475.04843 C 493.3435,519.55243 527.84432,557.98663 562.34514,581.67803 C 596.84595,605.36943 631.34677,614.05563 665.84759,605.84893 C 700.34841,597.64233 734.84923,572.51623 769.35004,536.25143 C 803.85086,499.98673 838.35168,452.80513 872.85245,405.45103"
           title="sin(x)"
           id="path3274" />
        <path
           style="opacity:1;fill:none;fill-opacity:0.82300882;fill-rule:evenodd;stroke:#000000;stroke-width:0.8385278;stroke-linecap:butt;stroke-linejoin:miter;stroke-miterlimit:4;stroke-dasharray:none;stroke-opacity:1"
           d="M 872.85245,405.45103 C 838.35164,358.09683 803.85082,310.93653 769.35,274.65053 C 734.84918,238.36453 700.34837,213.29223 665.84755,205.05303 C 631.34673,196.81373 596.84591,205.56123 562.34509,229.22393 C 527.84428,252.88673 493.34346,291.36083 458.84264,335.85353 C 424.34182,380.34613 389.84101,430.54453 355.34019,475.04843 C 320.83937,519.55243 286.33855,557.98663 251.83773,581.67803 C 217.33692,605.36943 182.8361,614.05563 148.33528,605.84893 C 113.83446,597.64233 79.33364,572.51623 44.83283,536.25143 C 10.33201,499.98673 -24.16881,452.80513 -58.66958,405.45103"
           title="sin(x)"
           id="path3276" />
      </g>
    </g>
    <g
       id="g5293987012832727"
       inkscape:shape="B0"
       transform="translate(1040,-20)">
      <g
         id="g2701691735949153"
         inkscape:shape="B"
         transform="translate(0,700)">
        <path
           style="opacity:1;fill:none;fill-opacity:0.82300882;fill-rule:evenodd;stroke:#000000;stroke-width:0.8385278;stroke-linecap:butt;stroke-linejoin:miter;stroke-miterlimit:4;stroke-dasharray:none;stroke-opacity:1"
           d="M -58.66958,405.45103 C -24.168766,358.09683 10.332054,310.93653 44.832874,274.65053 C 79.333694,238.36453 113.8345,213.29223 148.33532,205.05303 C 182.83614,196.81373 217.33696,205.56123 251.83778,229.22393 C 286.33859,252.88673 320.83941,291.36083 355.34023,335.85353 C 389.84105,380.34613 424.34186,430.54453 458.84268,475.04843 C 493.3435,519.55243 527.84432,557.98663 562.34514,581.67803 C 596.84595,605.36943 631.34677,614.05563 665.84759,605.84893 C 700.34841,597.64233 734.84923,572.51623 769.35004,536.25143 C 803.85086,499.98673 838.35168,452.80513 872.85245,405.45103"
           title="sin(x)"
           id="path3326" />
        <path
           style="opacity:1;fill:none;fill-opacity:0.82300882;fill-rule:evenodd;stroke:#000000;stroke-width:0.8385278;stroke-linecap:butt;stroke-linejoin:miter;stroke-miterlimit:4;stroke-dasharray:none;stroke-opacity:1"
           d="M 872.85245,405.45103 C 838.35164,358.09683 803.85082,310.93653 769.35,274.65053 C 734.84918,238.36453 700.34837,213.29223 665.84755,205.05303 C 631.34673,196.81373 596.84591,205.56123 562.34509,229.22393 C 527.84428,252.88673 493.34346,291.36083 458.84264,335.85353 C 424.34182,380.34613 389.84101,430.54453 355.34019,475.04843 C 320.83937,519.55243 286.33855,557.98663 251.83773,581.67803 C 217.33692,605.36943 182.8361,614.05563 148.33528,605.84893 C 113.83446,597.64233 79.33364,572.51623 44.83283,536.25143 C 10.33201,499.98673 -24.16881,452.80513 -58.66958,405.45103"
           title="sin(x)"
           id="path3328" />
        <g
           id="g3330"
           inkscape:shape="B"
           transform="matrix(0.992,0,0,0.992,3.2567315,3.2435689)"
           inkscape:rdepth="0"
           inkscape:hue="0.0"
           inkscape:huefloor="-0.001"
           inkscape:hueceil="-0.001"
           inkscape:sat="0.0"
           inkscape:satfloor="-0.001"
           inkscape:satceil="-0.001"
           inkscape:bri="0.01"
           inkscape:brifloor="-0.001"
           inkscape:briceil="1.0"
           inkscape:opa="0.0"
           inkscape:opafloor="0.0"
           inkscape:opaceil="1.0">
          <path
             style="opacity:1;fill:none;fill-opacity:0.82300882;fill-rule:evenodd;stroke:#000000;stroke-width:0.8385278;stroke-linecap:butt;stroke-linejoin:miter;stroke-miterlimit:4;stroke-dasharray:none;stroke-opacity:1"
             d="M -58.66958,405.45103 C -24.168766,358.09683 10.332054,310.93653 44.832874,274.65053 C 79.333694,238.36453 113.8345,213.29223 148.33532,205.05303 C 182.83614,196.81373 217.33696,205.56123 251.83778,229.22393 C 286.33859,252.88673 320.83941,291.36083 355.34023,335.85353 C 389.84105,380.34613 424.34186,430.54453 458.84268,475.04843 C 493.3435,519.55243 527.84432,557.98663 562.34514,581.67803 C 596.84595,605.36943 631.34677,614.05563 665.84759,605.84893 C 700.34841,597.64233 734.84923,572.51623 769.35004,536.25143 C 803.85086,499.98673 838.35168,452.80513 872.85245,405.45103"
             title="sin(x)"
             id="path3332" />
          <path
             style="opacity:1;fill:none;fill-opacity:0.82300882;fill-rule:evenodd;stroke:#000000;stroke-width:0.8385278;stroke-linecap:butt;stroke-linejoin:miter;stroke-miterlimit:4;stroke-dasharray:none;stroke-opacity:1"
             d="M 872.85245,405.45103 C 838.35164,358.09683 803.85082,310.93653 769.35,274.65053 C 734.84918,238.36453 700.34837,213.29223 665.84755,205.05303 C 631.34673,196.81373 596.84591,205.56123 562.34509,229.22393 C 527.84428,252.88673 493.34346,291.36083 458.84264,335.85353 C 424.34182,380.34613 389.84101,430.54453 355.34019,475.04843 C 320.83937,519.55243 286.33855,557.98663 251.83773,581.67803 C 217.33692,605.36943 182.8361,614.05563 148.33528,605.84893 C 113.83446,597.64233 79.33364,572.51623 44.83283,536.25143 C 10.33201,499.98673 -24.16881,452.80513 -58.66958,405.45103"
             title="sin(x)"
             id="path3334" />
        </g>
      </g>
      <g
         id="g3357"
         inkscape:shape="B"
         transform="matrix(0,-1,1,0,1.6453286,1512.5375)">
        <path
           style="opacity:1;fill:none;fill-opacity:0.82300882;fill-rule:evenodd;stroke:#000000;stroke-width:0.8385278;stroke-linecap:butt;stroke-linejoin:miter;stroke-miterlimit:4;stroke-dasharray:none;stroke-opacity:1"
           d="M -58.66958,405.45103 C -24.168766,358.09683 10.332054,310.93653 44.832874,274.65053 C 79.333694,238.36453 113.8345,213.29223 148.33532,205.05303 C 182.83614,196.81373 217.33696,205.56123 251.83778,229.22393 C 286.33859,252.88673 320.83941,291.36083 355.34023,335.85353 C 389.84105,380.34613 424.34186,430.54453 458.84268,475.04843 C 493.3435,519.55243 527.84432,557.98663 562.34514,581.67803 C 596.84595,605.36943 631.34677,614.05563 665.84759,605.84893 C 700.34841,597.64233 734.84923,572.51623 769.35004,536.25143 C 803.85086,499.98673 838.35168,452.80513 872.85245,405.45103"
           title="sin(x)"
           id="path3359" />
        <path
           style="opacity:1;fill:none;fill-opacity:0.82300882;fill-rule:evenodd;stroke:#000000;stroke-width:0.8385278;stroke-linecap:butt;stroke-linejoin:miter;stroke-miterlimit:4;stroke-dasharray:none;stroke-opacity:1"
           d="M 872.85245,405.45103 C 838.35164,358.09683 803.85082,310.93653 769.35,274.65053 C 734.84918,238.36453 700.34837,213.29223 665.84755,205.05303 C 631.34673,196.81373 596.84591,205.56123 562.34509,229.22393 C 527.84428,252.88673 493.34346,291.36083 458.84264,335.85353 C 424.34182,380.34613 389.84101,430.54453 355.34019,475.04843 C 320.83937,519.55243 286.33855,557.98663 251.83773,581.67803 C 217.33692,605.36943 182.8361,614.05563 148.33528,605.84893 C 113.83446,597.64233 79.33364,572.51623 44.83283,536.25143 C 10.33201,499.98673 -24.16881,452.80513 -58.66958,405.45103"
           title="sin(x)"
           id="path3361" />
        <g
           id="g3363"
           inkscape:shape="B"
           transform="matrix(0.992,0,0,0.992,3.2567315,3.2435689)"
           inkscape:rdepth="0"
           inkscape:hue="0.0"
           inkscape:huefloor="-0.001"
           inkscape:hueceil="-0.001"
           inkscape:sat="0.0"
           inkscape:satfloor="-0.001"
           inkscape:satceil="-0.001"
           inkscape:bri="0.01"
           inkscape:brifloor="-0.001"
           inkscape:briceil="1.0"
           inkscape:opa="0.0"
           inkscape:opafloor="0.0"
           inkscape:opaceil="1.0">
          <path
             style="opacity:1;fill:none;fill-opacity:0.82300882;fill-rule:evenodd;stroke:#000000;stroke-width:0.8385278;stroke-linecap:butt;stroke-linejoin:miter;stroke-miterlimit:4;stroke-dasharray:none;stroke-opacity:1"
             d="M -58.66958,405.45103 C -24.168766,358.09683 10.332054,310.93653 44.832874,274.65053 C 79.333694,238.36453 113.8345,213.29223 148.33532,205.05303 C 182.83614,196.81373 217.33696,205.56123 251.83778,229.22393 C 286.33859,252.88673 320.83941,291.36083 355.34023,335.85353 C 389.84105,380.34613 424.34186,430.54453 458.84268,475.04843 C 493.3435,519.55243 527.84432,557.98663 562.34514,581.67803 C 596.84595,605.36943 631.34677,614.05563 665.84759,605.84893 C 700.34841,597.64233 734.84923,572.51623 769.35004,536.25143 C 803.85086,499.98673 838.35168,452.80513 872.85245,405.45103"
             title="sin(x)"
             id="path3365" />
          <path
             style="opacity:1;fill:none;fill-opacity:0.82300882;fill-rule:evenodd;stroke:#000000;stroke-width:0.8385278;stroke-linecap:butt;stroke-linejoin:miter;stroke-miterlimit:4;stroke-dasharray:none;stroke-opacity:1"
             d="M 872.85245,405.45103 C 838.35164,358.09683 803.85082,310.93653 769.35,274.65053 C 734.84918,238.36453 700.34837,213.29223 665.84755,205.05303 C 631.34673,196.81373 596.84591,205.56123 562.34509,229.22393 C 527.84428,252.88673 493.34346,291.36083 458.84264,335.85353 C 424.34182,380.34613 389.84101,430.54453 355.34019,475.04843 C 320.83937,519.55243 286.33855,557.98663 251.83773,581.67803 C 217.33692,605.36943 182.8361,614.05563 148.33528,605.84893 C 113.83446,597.64233 79.33364,572.51623 44.83283,536.25143 C 10.33201,499.98673 -24.16881,452.80513 -58.66958,405.45103"
             title="sin(x)"
             id="path3367" />
        </g>
      </g>
      <g
         id="g3389"
         inkscape:shape="B0"
         transform="matrix(0.4949748,-0.4949748,0.4949748,0.4949748,-341.57577,759.77817)">
        <g
           id="g3391"
           inkscape:shape="B"
           transform="translate(0,700)">
          <path
             style="opacity:1;fill:none;fill-opacity:0.82300882;fill-rule:evenodd;stroke:#000000;stroke-width:0.8385278;stroke-linecap:butt;stroke-linejoin:miter;stroke-miterlimit:4;stroke-dasharray:none;stroke-opacity:1"
             d="M -58.66958,405.45103 C -24.168766,358.09683 10.332054,310.93653 44.832874,274.65053 C 79.333694,238.36453 113.8345,213.29223 148.33532,205.05303 C 182.83614,196.81373 217.33696,205.56123 251.83778,229.22393 C 286.33859,252.88673 320.83941,291.36083 355.34023,335.85353 C 389.84105,380.34613 424.34186,430.54453 458.84268,475.04843 C 493.3435,519.55243 527.84432,557.98663 562.34514,581.67803 C 596.84595,605.36943 631.34677,614.05563 665.84759,605.84893 C 700.34841,597.64233 734.84923,572.51623 769.35004,536.25143 C 803.85086,499.98673 838.35168,452.80513 872.85245,405.45103"
             title="sin(x)"
             id="path3393" />
          <path
             style="opacity:1;fill:none;fill-opacity:0.82300882;fill-rule:evenodd;stroke:#000000;stroke-width:0.8385278;stroke-linecap:butt;stroke-linejoin:miter;stroke-miterlimit:4;stroke-dasharray:none;stroke-opacity:1"
             d="M 872.85245,405.45103 C 838.35164,358.09683 803.85082,310.93653 769.35,274.65053 C 734.84918,238.36453 700.34837,213.29223 665.84755,205.05303 C 631.34673,196.81373 596.84591,205.56123 562.34509,229.22393 C 527.84428,252.88673 493.34346,291.36083 458.84264,335.85353 C 424.34182,380.34613 389.84101,430.54453 355.34019,475.04843 C 320.83937,519.55243 286.33855,557.98663 251.83773,581.67803 C 217.33692,605.36943 182.8361,614.05563 148.33528,605.84893 C 113.83446,597.64233 79.33364,572.51623 44.83283,536.25143 C 10.33201,499.98673 -24.16881,452.80513 -58.66958,405.45103"
             title="sin(x)"
             id="path3395" />
          <g
             id="g3397"
             inkscape:shape="B"
             transform="matrix(0.992,0,0,0.992,3.2567315,3.2435689)"
             inkscape:rdepth="0"
             inkscape:hue="0.0"
             inkscape:huefloor="-0.001"
             inkscape:hueceil="-0.001"
             inkscape:sat="0.0"
             inkscape:satfloor="-0.001"
             inkscape:satceil="-0.001"
             inkscape:bri="0.01"
             inkscape:brifloor="-0.001"
             inkscape:briceil="1.0"
             inkscape:opa="0.0"
             inkscape:opafloor="0.0"
             inkscape:opaceil="1.0">
            <path
               style="opacity:1;fill:none;fill-opacity:0.82300882;fill-rule:evenodd;stroke:#000000;stroke-width:0.8385278;stroke-linecap:butt;stroke-linejoin:miter;stroke-miterlimit:4;stroke-dasharray:none;stroke-opacity:1"
               d="M -58.66958,405.45103 C -24.168766,358.09683 10.332054,310.93653 44.832874,274.65053 C 79.333694,238.36453 113.8345,213.29223 148.33532,205.05303 C 182.83614,196.81373 217.33696,205.56123 251.83778,229.22393 C 286.33859,252.88673 320.83941,291.36083 355.34023,335.85353 C 389.84105,380.34613 424.34186,430.54453 458.84268,475.04843 C 493.3435,519.55243 527.84432,557.98663 562.34514,581.67803 C 596.84595,605.36943 631.34677,614.05563 665.84759,605.84893 C 700.34841,597.64233 734.84923,572.51623 769.35004,536.25143 C 803.85086,499.98673 838.35168,452.80513 872.85245,405.45103"
               title="sin(x)"
               id="path3399" />
            <path
               style="opacity:1;fill:none;fill-opacity:0.82300882;fill-rule:evenodd;stroke:#000000;stroke-width:0.8385278;stroke-linecap:butt;stroke-linejoin:miter;stroke-miterlimit:4;stroke-dasharray:none;stroke-opacity:1"
               d="M 872.85245,405.45103 C 838.35164,358.09683 803.85082,310.93653 769.35,274.65053 C 734.84918,238.36453 700.34837,213.29223 665.84755,205.05303 C 631.34673,196.81373 596.84591,205.56123 562.34509,229.22393 C 527.84428,252.88673 493.34346,291.36083 458.84264,335.85353 C 424.34182,380.34613 389.84101,430.54453 355.34019,475.04843 C 320.83937,519.55243 286.33855,557.98663 251.83773,581.67803 C 217.33692,605.36943 182.8361,614.05563 148.33528,605.84893 C 113.83446,597.64233 79.33364,572.51623 44.83283,536.25143 C 10.33201,499.98673 -24.16881,452.80513 -58.66958,405.45103"
               title="sin(x)"
               id="path3401" />
          </g>
        </g>
        <g
           id="g3403"
           inkscape:shape="B"
           transform="matrix(0,-1,1,0,1.6453286,1512.5375)">
          <path
             style="opacity:1;fill:none;fill-opacity:0.82300882;fill-rule:evenodd;stroke:#000000;stroke-width:0.8385278;stroke-linecap:butt;stroke-linejoin:miter;stroke-miterlimit:4;stroke-dasharray:none;stroke-opacity:1"
             d="M -58.66958,405.45103 C -24.168766,358.09683 10.332054,310.93653 44.832874,274.65053 C 79.333694,238.36453 113.8345,213.29223 148.33532,205.05303 C 182.83614,196.81373 217.33696,205.56123 251.83778,229.22393 C 286.33859,252.88673 320.83941,291.36083 355.34023,335.85353 C 389.84105,380.34613 424.34186,430.54453 458.84268,475.04843 C 493.3435,519.55243 527.84432,557.98663 562.34514,581.67803 C 596.84595,605.36943 631.34677,614.05563 665.84759,605.84893 C 700.34841,597.64233 734.84923,572.51623 769.35004,536.25143 C 803.85086,499.98673 838.35168,452.80513 872.85245,405.45103"
             title="sin(x)"
             id="path3405" />
          <path
             style="opacity:1;fill:none;fill-opacity:0.82300882;fill-rule:evenodd;stroke:#000000;stroke-width:0.8385278;stroke-linecap:butt;stroke-linejoin:miter;stroke-miterlimit:4;stroke-dasharray:none;stroke-opacity:1"
             d="M 872.85245,405.45103 C 838.35164,358.09683 803.85082,310.93653 769.35,274.65053 C 734.84918,238.36453 700.34837,213.29223 665.84755,205.05303 C 631.34673,196.81373 596.84591,205.56123 562.34509,229.22393 C 527.84428,252.88673 493.34346,291.36083 458.84264,335.85353 C 424.34182,380.34613 389.84101,430.54453 355.34019,475.04843 C 320.83937,519.55243 286.33855,557.98663 251.83773,581.67803 C 217.33692,605.36943 182.8361,614.05563 148.33528,605.84893 C 113.83446,597.64233 79.33364,572.51623 44.83283,536.25143 C 10.33201,499.98673 -24.16881,452.80513 -58.66958,405.45103"
             title="sin(x)"
             id="path3407" />
          <g
             id="g3409"
             inkscape:shape="B"
             transform="matrix(0.992,0,0,0.992,3.2567315,3.2435689)"
             inkscape:rdepth="0"
             inkscape:hue="0.0"
             inkscape:huefloor="-0.001"
             inkscape:hueceil="-0.001"
             inkscape:sat="0.0"
             inkscape:satfloor="-0.001"
             inkscape:satceil="-0.001"
             inkscape:bri="0.01"
             inkscape:brifloor="-0.001"
             inkscape:briceil="1.0"
             inkscape:opa="0.0"
             inkscape:opafloor="0.0"
             inkscape:opaceil="1.0">
            <path
               style="opacity:1;fill:none;fill-opacity:0.82300882;fill-rule:evenodd;stroke:#000000;stroke-width:0.8385278;stroke-linecap:butt;stroke-linejoin:miter;stroke-miterlimit:4;stroke-dasharray:none;stroke-opacity:1"
               d="M -58.66958,405.45103 C -24.168766,358.09683 10.332054,310.93653 44.832874,274.65053 C 79.333694,238.36453 113.8345,213.29223 148.33532,205.05303 C 182.83614,196.81373 217.33696,205.56123 251.83778,229.22393 C 286.33859,252.88673 320.83941,291.36083 355.34023,335.85353 C 389.84105,380.34613 424.34186,430.54453 458.84268,475.04843 C 493.3435,519.55243 527.84432,557.98663 562.34514,581.67803 C 596.84595,605.36943 631.34677,614.05563 665.84759,605.84893 C 700.34841,597.64233 734.84923,572.51623 769.35004,536.25143 C 803.85086,499.98673 838.35168,452.80513 872.85245,405.45103"
               title="sin(x)"
               id="path3411" />
            <path
               style="opacity:1;fill:none;fill-opacity:0.82300882;fill-rule:evenodd;stroke:#000000;stroke-width:0.8385278;stroke-linecap:butt;stroke-linejoin:miter;stroke-miterlimit:4;stroke-dasharray:none;stroke-opacity:1"
               d="M 872.85245,405.45103 C 838.35164,358.09683 803.85082,310.93653 769.35,274.65053 C 734.84918,238.36453 700.34837,213.29223 665.84755,205.05303 C 631.34673,196.81373 596.84591,205.56123 562.34509,229.22393 C 527.84428,252.88673 493.34346,291.36083 458.84264,335.85353 C 424.34182,380.34613 389.84101,430.54453 355.34019,475.04843 C 320.83937,519.55243 286.33855,557.98663 251.83773,581.67803 C 217.33692,605.36943 182.8361,614.05563 148.33528,605.84893 C 113.83446,597.64233 79.33364,572.51623 44.83283,536.25143 C 10.33201,499.98673 -24.16881,452.80513 -58.66958,405.45103"
               title="sin(x)"
               id="path3413" />
          </g>
        </g>
      </g>
    </g>
  </g>
</svg>
